M48
; DRILL file KiCad 10.0.3 date 2026-10-07T09:55:48
; FORMAT={-:-/ absolute / metric / decimal}
; #@! TF.CreationDate,2026-10-07T09:55:48-04:00
; #@! TF.GenerationSoftware,Kicad,Pcbnew,10.0.3
; #@! TF.FileFunction,Plated,1,2,PTH
FMAT,2
METRIC
; #@! TA.AperFunction,Plated,PTH,ViaDrill
T1C0.254
; #@! TA.AperFunction,Plated,PTH,ViaDrill
T2C0.300
; #@! TA.AperFunction,Plated,PTH,ComponentDrill
T3C0.840
%
G90
G05
T1
X144.8Y-107.483
X150.6Y-100.034
X153.45Y-97.292
T2
X140.45Y-111.2
X141.85Y-108.248
X146.199Y-109.344
X149.15Y-108.248
X152.05Y-109.344
X155.203Y-108.262
X156.4Y-111.2
T3
X143.322Y-88.007
X143.322Y-90.547
X143.322Y-93.087
X143.322Y-95.627
X143.322Y-98.167
X143.322Y-100.707
X143.322Y-103.247
X158.562Y-88.007
X158.562Y-90.547
X158.562Y-93.087
X158.562Y-95.627
X158.562Y-98.167
X158.562Y-100.707
X158.562Y-103.247
M30
