%TF.GenerationSoftware,KiCad,Pcbnew,10.0.3*%
%TF.CreationDate,2026-10-07T09:56:08-04:00*%
%TF.ProjectId,Wii_RA,5769695f-5241-42e6-9b69-6361645f7063,rev?*%
%TF.SameCoordinates,Original*%
%TF.FileFunction,Copper,L2,Bot*%
%TF.FilePolarity,Positive*%
%FSLAX46Y46*%
G04 Gerber Fmt 4.6, Leading zero omitted, Abs format (unit mm)*
G04 Created by KiCad (PCBNEW 10.0.3) date 2026-10-07 09:56:08*
%MOMM*%
%LPD*%
G01*
G04 APERTURE LIST*
%TA.AperFunction,ComponentPad*%
%ADD10C,1.348000*%
%TD*%
%TA.AperFunction,ViaPad*%
%ADD11C,0.600000*%
%TD*%
%TA.AperFunction,ViaPad*%
%ADD12C,0.457200*%
%TD*%
%TA.AperFunction,Conductor*%
%ADD13C,0.600000*%
%TD*%
G04 APERTURE END LIST*
D10*
%TO.P,U1,3.3*%
%TO.N,N/C*%
X158562175Y-93087015D03*
%TO.P,U1,5V*%
%TO.N,NetD1_2*%
X158562175Y-88007015D03*
%TO.P,U1,D0*%
%TO.N,N/C*%
X143322175Y-88007015D03*
%TO.P,U1,D1*%
X143322175Y-90547015D03*
%TO.P,U1,D2*%
X143322175Y-93087015D03*
%TO.P,U1,D3*%
%TO.N,GC_INT*%
X143322175Y-95627015D03*
%TO.P,U1,D4*%
%TO.N,GC_MISO*%
X143322175Y-98167015D03*
%TO.P,U1,D5*%
%TO.N,NetBZ1_1*%
X143322175Y-100707015D03*
%TO.P,U1,D6*%
%TO.N,N/C*%
X143322175Y-103247015D03*
%TO.P,U1,D7*%
X158562175Y-103247015D03*
%TO.P,U1,D8*%
%TO.N,CS*%
X158562175Y-100707015D03*
%TO.P,U1,D9*%
%TO.N,CLK*%
X158562175Y-98167015D03*
%TO.P,U1,D10*%
%TO.N,GC_MOSI*%
X158562175Y-95627015D03*
%TO.P,U1,G*%
%TO.N,GND*%
X158562175Y-90547015D03*
%TD*%
D11*
%TO.N,NetD1_1*%
X155203115Y-108262175D03*
X149150175Y-108248175D03*
D12*
%TO.N,GC_INT*%
X153450175Y-97291635D03*
%TO.N,GC_MISO*%
X150600175Y-100034345D03*
D11*
%TO.N,3V3*%
X152050175Y-109344245D03*
X146199025Y-109344245D03*
%TO.N,EXT*%
X156400175Y-111200345D03*
X140450175Y-111200345D03*
D12*
%TO.N,CS*%
X144800175Y-107483495D03*
D11*
%TO.N,CLK*%
X141850175Y-108248175D03*
%TD*%
%TO.N,NetD1_1*%
D13*
X149164175Y-108262175D02*
X155203115Y-108262175D01*
%TO.N,GC_INT*%
X152041025Y-95672495D02*
X153450175Y-97081645D01*
X153450175Y-97291635D02*
X153450175Y-97081645D01*
X143367665Y-95672495D02*
X152041025Y-95672495D01*
X143322175Y-95627015D02*
X143367665Y-95672495D01*
%TO.N,GC_MISO*%
X143322175Y-98167015D02*
X143367665Y-98212495D01*
X148778325Y-98212495D02*
X150600175Y-100034345D01*
X143367665Y-98212495D02*
X148778325Y-98212495D01*
%TO.N,3V3*%
X146199025Y-109344245D02*
X152050175Y-109344245D01*
%TO.N,EXT*%
X140450175Y-111200345D02*
X156400175Y-111200345D01*
%TO.N,CS*%
X154424845Y-100707015D02*
X158562175Y-100707015D01*
X147648365Y-107483495D02*
X154424845Y-100707015D01*
X144800175Y-107483495D02*
X147648365Y-107483495D01*
%TO.N,CLK*%
X144155675Y-105942685D02*
X147103295Y-105942685D01*
X141850175Y-108248175D02*
X144155675Y-105942685D01*
X154878975Y-98167015D02*
X158562175Y-98167015D01*
X147103295Y-105942685D02*
X154878975Y-98167015D01*
%TD*%
%TA.AperFunction,Conductor*%
%TO.N,GND*%
G36*
X162843336Y-85505517D02*
G01*
X162910371Y-85525209D01*
X162931002Y-85541836D01*
X164065206Y-86676040D01*
X164098691Y-86737363D01*
X164101525Y-86763721D01*
X164101525Y-110880545D01*
X164081840Y-110947584D01*
X164029036Y-110993339D01*
X163977525Y-111004545D01*
X157586127Y-111004545D01*
X157505433Y-111026166D01*
X157505434Y-111026167D01*
X157482454Y-111032324D01*
X157482449Y-111032325D01*
X157458841Y-111038652D01*
X157458839Y-111038652D01*
X157458839Y-111038653D01*
X157441185Y-111048845D01*
X157437674Y-111050871D01*
X157437669Y-111050874D01*
X157362344Y-111094363D01*
X157294444Y-111110835D01*
X157228417Y-111087982D01*
X157185227Y-111033060D01*
X157178728Y-111011166D01*
X157169913Y-110966855D01*
X157169912Y-110966848D01*
X157154246Y-110929026D01*
X157109572Y-110821172D01*
X157109565Y-110821159D01*
X157021964Y-110690056D01*
X157021961Y-110690052D01*
X156910467Y-110578558D01*
X156910463Y-110578555D01*
X156779360Y-110490954D01*
X156779347Y-110490947D01*
X156633676Y-110430609D01*
X156633664Y-110430606D01*
X156479020Y-110399845D01*
X156479017Y-110399845D01*
X140371333Y-110399845D01*
X140371330Y-110399845D01*
X140216685Y-110430606D01*
X140216673Y-110430609D01*
X140071002Y-110490947D01*
X140070989Y-110490954D01*
X139939886Y-110578555D01*
X139939882Y-110578558D01*
X139828388Y-110690052D01*
X139828385Y-110690056D01*
X139740784Y-110821159D01*
X139740779Y-110821168D01*
X139682717Y-110961345D01*
X139638876Y-111015748D01*
X139572582Y-111037813D01*
X139536064Y-111033667D01*
X139416068Y-111001515D01*
X139416067Y-111001515D01*
X133024675Y-111001515D01*
X132957636Y-110981830D01*
X132911881Y-110929026D01*
X132900675Y-110877515D01*
X132900675Y-108169326D01*
X141049675Y-108169326D01*
X141049675Y-108327020D01*
X141077150Y-108465146D01*
X141080437Y-108481671D01*
X141105432Y-108542014D01*
X141140781Y-108627354D01*
X141201846Y-108718744D01*
X141204967Y-108723416D01*
X141204971Y-108723422D01*
X141228383Y-108758461D01*
X141228385Y-108758463D01*
X141339884Y-108869963D01*
X141339887Y-108869965D01*
X141470996Y-108957569D01*
X141531338Y-108982563D01*
X141539077Y-108985768D01*
X141539081Y-108985771D01*
X141590339Y-109007002D01*
X141616676Y-109017912D01*
X141740569Y-109042556D01*
X141771326Y-109048674D01*
X141771329Y-109048675D01*
X141771331Y-109048675D01*
X141929017Y-109048675D01*
X141959779Y-109042556D01*
X142083671Y-109017913D01*
X142144014Y-108992917D01*
X142229354Y-108957569D01*
X142360464Y-108869964D01*
X142471964Y-108758464D01*
X142471965Y-108758463D01*
X143787996Y-107442436D01*
X143849317Y-107408953D01*
X143919009Y-107413937D01*
X143974942Y-107455809D01*
X143999359Y-107521273D01*
X143999675Y-107530119D01*
X143999675Y-107562341D01*
X144030436Y-107716984D01*
X144030439Y-107716996D01*
X144090777Y-107862667D01*
X144090784Y-107862680D01*
X144178385Y-107993783D01*
X144178388Y-107993787D01*
X144289882Y-108105281D01*
X144289886Y-108105284D01*
X144420989Y-108192885D01*
X144421002Y-108192892D01*
X144566673Y-108253230D01*
X144566678Y-108253232D01*
X144721328Y-108283994D01*
X144721331Y-108283995D01*
X144721333Y-108283995D01*
X147727209Y-108283995D01*
X147727210Y-108283994D01*
X147881862Y-108253232D01*
X148027544Y-108192889D01*
X148156785Y-108106532D01*
X148223461Y-108085655D01*
X148290841Y-108104139D01*
X148337532Y-108156118D01*
X148349675Y-108209635D01*
X148349675Y-108327021D01*
X148363307Y-108395554D01*
X148357080Y-108465146D01*
X148314217Y-108520323D01*
X148248327Y-108543567D01*
X148241690Y-108543745D01*
X146120180Y-108543745D01*
X145965535Y-108574506D01*
X145965523Y-108574509D01*
X145819852Y-108634847D01*
X145819839Y-108634854D01*
X145688736Y-108722455D01*
X145688732Y-108722458D01*
X145577238Y-108833952D01*
X145577235Y-108833956D01*
X145489634Y-108965059D01*
X145489627Y-108965072D01*
X145429289Y-109110743D01*
X145429286Y-109110755D01*
X145398525Y-109265398D01*
X145398525Y-109423091D01*
X145429286Y-109577734D01*
X145429289Y-109577746D01*
X145489627Y-109723417D01*
X145489634Y-109723430D01*
X145577235Y-109854533D01*
X145577238Y-109854537D01*
X145688732Y-109966031D01*
X145688736Y-109966034D01*
X145819839Y-110053635D01*
X145819852Y-110053642D01*
X145965523Y-110113980D01*
X145965528Y-110113982D01*
X146120178Y-110144744D01*
X146120181Y-110144745D01*
X146120183Y-110144745D01*
X152129019Y-110144745D01*
X152129020Y-110144744D01*
X152283672Y-110113982D01*
X152429354Y-110053639D01*
X152560464Y-109966034D01*
X152671964Y-109854534D01*
X152759569Y-109723424D01*
X152819912Y-109577742D01*
X152850675Y-109423087D01*
X152850675Y-109265403D01*
X152850675Y-109265400D01*
X152839827Y-109210867D01*
X152846054Y-109141276D01*
X152888916Y-109086098D01*
X152954806Y-109062853D01*
X152961444Y-109062675D01*
X155281959Y-109062675D01*
X155281960Y-109062674D01*
X155436612Y-109031912D01*
X155582294Y-108971569D01*
X155713404Y-108883964D01*
X155824904Y-108772464D01*
X155912509Y-108641354D01*
X155972852Y-108495672D01*
X156003615Y-108341017D01*
X156003615Y-108183333D01*
X156003615Y-108183330D01*
X156003614Y-108183328D01*
X156000829Y-108169326D01*
X155972852Y-108028678D01*
X155916705Y-107893126D01*
X155912512Y-107883002D01*
X155912505Y-107882989D01*
X155824904Y-107751886D01*
X155824901Y-107751882D01*
X155713407Y-107640388D01*
X155713403Y-107640385D01*
X155582300Y-107552784D01*
X155582287Y-107552777D01*
X155436616Y-107492439D01*
X155436604Y-107492436D01*
X155281960Y-107461675D01*
X155281957Y-107461675D01*
X149311611Y-107461675D01*
X149302776Y-107461360D01*
X149295035Y-107460807D01*
X149229017Y-107447675D01*
X149111201Y-107447675D01*
X149106791Y-107447360D01*
X149078026Y-107436634D01*
X149048587Y-107427990D01*
X149045600Y-107424543D01*
X149041324Y-107422949D01*
X149022921Y-107398370D01*
X149002832Y-107375186D01*
X149002182Y-107370671D01*
X148999448Y-107367019D01*
X148997255Y-107336401D01*
X148992888Y-107306028D01*
X148994782Y-107301878D01*
X148994457Y-107297327D01*
X149009165Y-107270384D01*
X149021913Y-107242472D01*
X149027934Y-107236004D01*
X149027937Y-107236001D01*
X149027940Y-107235999D01*
X149027945Y-107235994D01*
X154720104Y-101543834D01*
X154781427Y-101510349D01*
X154807785Y-101507515D01*
X157650318Y-101507515D01*
X157717357Y-101527200D01*
X157737999Y-101543834D01*
X157797040Y-101602875D01*
X157797045Y-101602879D01*
X157927493Y-101697654D01*
X157946603Y-101711538D01*
X158054281Y-101766403D01*
X158111322Y-101795467D01*
X158111325Y-101795468D01*
X158199234Y-101824031D01*
X158287146Y-101852595D01*
X158297325Y-101854207D01*
X158299438Y-101854542D01*
X158362572Y-101884472D01*
X158399503Y-101943784D01*
X158398505Y-102013646D01*
X158359894Y-102071879D01*
X158299438Y-102099488D01*
X158287144Y-102101435D01*
X158111325Y-102158561D01*
X158111322Y-102158562D01*
X157946599Y-102242494D01*
X157797045Y-102351150D01*
X157797040Y-102351154D01*
X157666314Y-102481880D01*
X157666310Y-102481885D01*
X157557654Y-102631439D01*
X157473722Y-102796162D01*
X157473721Y-102796165D01*
X157416594Y-102971984D01*
X157387675Y-103154574D01*
X157387675Y-103339455D01*
X157416594Y-103522045D01*
X157473721Y-103697864D01*
X157473722Y-103697867D01*
X157557654Y-103862590D01*
X157666310Y-104012144D01*
X157666314Y-104012149D01*
X157797040Y-104142875D01*
X157797045Y-104142879D01*
X157927493Y-104237654D01*
X157946603Y-104251538D01*
X158054281Y-104306403D01*
X158111322Y-104335467D01*
X158111325Y-104335468D01*
X158287144Y-104392595D01*
X158469735Y-104421515D01*
X158469740Y-104421515D01*
X158654615Y-104421515D01*
X158837205Y-104392595D01*
X159013024Y-104335468D01*
X159013027Y-104335467D01*
X159177747Y-104251538D01*
X159327311Y-104142874D01*
X159458034Y-104012151D01*
X159566698Y-103862587D01*
X159650627Y-103697867D01*
X159707755Y-103522044D01*
X159736675Y-103339455D01*
X159736675Y-103154574D01*
X159707755Y-102971984D01*
X159650628Y-102796165D01*
X159650627Y-102796162D01*
X159621563Y-102739121D01*
X159566698Y-102631443D01*
X159552814Y-102612333D01*
X159458039Y-102481885D01*
X159458035Y-102481880D01*
X159327309Y-102351154D01*
X159327304Y-102351150D01*
X159177750Y-102242494D01*
X159177749Y-102242493D01*
X159177747Y-102242492D01*
X159124974Y-102215603D01*
X159013027Y-102158562D01*
X159013024Y-102158561D01*
X158837205Y-102101435D01*
X158824912Y-102099488D01*
X158761777Y-102069559D01*
X158724846Y-102010247D01*
X158725844Y-101940385D01*
X158764454Y-101882152D01*
X158824912Y-101854542D01*
X158826683Y-101854261D01*
X158837204Y-101852595D01*
X159013027Y-101795467D01*
X159177747Y-101711538D01*
X159327311Y-101602874D01*
X159458034Y-101472151D01*
X159566698Y-101322587D01*
X159650627Y-101157867D01*
X159650628Y-101157864D01*
X159707755Y-100982045D01*
X159736675Y-100799455D01*
X159736675Y-100614574D01*
X159707755Y-100431984D01*
X159650628Y-100256165D01*
X159650627Y-100256162D01*
X159621563Y-100199121D01*
X159566698Y-100091443D01*
X159552814Y-100072333D01*
X159458039Y-99941885D01*
X159458035Y-99941880D01*
X159327309Y-99811154D01*
X159327304Y-99811150D01*
X159177750Y-99702494D01*
X159177749Y-99702493D01*
X159177747Y-99702492D01*
X159124974Y-99675603D01*
X159013027Y-99618562D01*
X159013024Y-99618561D01*
X158837205Y-99561435D01*
X158824912Y-99559488D01*
X158761777Y-99529559D01*
X158724846Y-99470247D01*
X158725844Y-99400385D01*
X158764454Y-99342152D01*
X158824912Y-99314542D01*
X158826683Y-99314261D01*
X158837204Y-99312595D01*
X159013027Y-99255467D01*
X159177747Y-99171538D01*
X159327311Y-99062874D01*
X159458034Y-98932151D01*
X159566698Y-98782587D01*
X159650627Y-98617867D01*
X159707755Y-98442044D01*
X159736675Y-98259455D01*
X159736675Y-98074574D01*
X159707755Y-97891984D01*
X159650628Y-97716165D01*
X159650627Y-97716162D01*
X159621563Y-97659121D01*
X159566698Y-97551443D01*
X159528614Y-97499025D01*
X159458039Y-97401885D01*
X159458035Y-97401880D01*
X159327309Y-97271154D01*
X159327304Y-97271150D01*
X159177750Y-97162494D01*
X159177749Y-97162493D01*
X159177747Y-97162492D01*
X159124974Y-97135603D01*
X159013027Y-97078562D01*
X159013024Y-97078561D01*
X158837205Y-97021435D01*
X158824912Y-97019488D01*
X158761777Y-96989559D01*
X158724846Y-96930247D01*
X158725844Y-96860385D01*
X158764454Y-96802152D01*
X158824912Y-96774542D01*
X158826683Y-96774261D01*
X158837204Y-96772595D01*
X159013027Y-96715467D01*
X159177747Y-96631538D01*
X159327311Y-96522874D01*
X159458034Y-96392151D01*
X159566698Y-96242587D01*
X159650627Y-96077867D01*
X159707755Y-95902044D01*
X159736675Y-95719455D01*
X159736675Y-95534574D01*
X159707755Y-95351984D01*
X159650628Y-95176165D01*
X159650627Y-95176162D01*
X159621563Y-95119121D01*
X159566698Y-95011443D01*
X159487735Y-94902759D01*
X159458039Y-94861885D01*
X159458035Y-94861880D01*
X159327309Y-94731154D01*
X159327304Y-94731150D01*
X159177750Y-94622494D01*
X159177749Y-94622493D01*
X159177747Y-94622492D01*
X159124974Y-94595603D01*
X159013027Y-94538562D01*
X159013024Y-94538561D01*
X158837205Y-94481435D01*
X158824912Y-94479488D01*
X158761777Y-94449559D01*
X158724846Y-94390247D01*
X158725844Y-94320385D01*
X158764454Y-94262152D01*
X158824912Y-94234542D01*
X158826683Y-94234261D01*
X158837204Y-94232595D01*
X159013027Y-94175467D01*
X159177747Y-94091538D01*
X159327311Y-93982874D01*
X159458034Y-93852151D01*
X159566698Y-93702587D01*
X159650627Y-93537867D01*
X159707755Y-93362044D01*
X159736675Y-93179455D01*
X159736675Y-92994574D01*
X159707755Y-92811984D01*
X159650628Y-92636165D01*
X159650627Y-92636162D01*
X159621563Y-92579121D01*
X159566698Y-92471443D01*
X159552814Y-92452333D01*
X159458039Y-92321885D01*
X159458035Y-92321880D01*
X159327309Y-92191154D01*
X159327304Y-92191150D01*
X159177750Y-92082494D01*
X159177749Y-92082493D01*
X159177747Y-92082492D01*
X159124974Y-92055603D01*
X159013027Y-91998562D01*
X159013024Y-91998561D01*
X158837205Y-91941434D01*
X158654615Y-91912515D01*
X158654610Y-91912515D01*
X158469740Y-91912515D01*
X158469735Y-91912515D01*
X158287144Y-91941434D01*
X158111325Y-91998561D01*
X158111322Y-91998562D01*
X157946599Y-92082494D01*
X157797045Y-92191150D01*
X157797040Y-92191154D01*
X157666314Y-92321880D01*
X157666310Y-92321885D01*
X157557654Y-92471439D01*
X157473722Y-92636162D01*
X157473721Y-92636165D01*
X157416594Y-92811984D01*
X157387675Y-92994574D01*
X157387675Y-93179455D01*
X157416594Y-93362045D01*
X157473721Y-93537864D01*
X157473722Y-93537867D01*
X157557654Y-93702590D01*
X157666310Y-93852144D01*
X157666314Y-93852149D01*
X157797040Y-93982875D01*
X157797045Y-93982879D01*
X157927493Y-94077654D01*
X157946603Y-94091538D01*
X158054281Y-94146403D01*
X158111322Y-94175467D01*
X158111325Y-94175468D01*
X158199234Y-94204031D01*
X158287146Y-94232595D01*
X158297325Y-94234207D01*
X158299438Y-94234542D01*
X158362572Y-94264472D01*
X158399503Y-94323784D01*
X158398505Y-94393646D01*
X158359894Y-94451879D01*
X158299438Y-94479488D01*
X158287144Y-94481435D01*
X158111325Y-94538561D01*
X158111322Y-94538562D01*
X157946599Y-94622494D01*
X157797045Y-94731150D01*
X157797040Y-94731154D01*
X157666314Y-94861880D01*
X157666310Y-94861885D01*
X157557654Y-95011439D01*
X157473722Y-95176162D01*
X157473721Y-95176165D01*
X157416594Y-95351984D01*
X157387675Y-95534574D01*
X157387675Y-95719455D01*
X157416594Y-95902045D01*
X157473721Y-96077864D01*
X157473722Y-96077867D01*
X157557654Y-96242590D01*
X157666310Y-96392144D01*
X157666314Y-96392149D01*
X157797040Y-96522875D01*
X157797045Y-96522879D01*
X157863769Y-96571356D01*
X157946603Y-96631538D01*
X158054281Y-96686403D01*
X158111322Y-96715467D01*
X158111325Y-96715468D01*
X158199234Y-96744031D01*
X158287146Y-96772595D01*
X158297325Y-96774207D01*
X158299438Y-96774542D01*
X158362572Y-96804472D01*
X158399503Y-96863784D01*
X158398505Y-96933646D01*
X158359894Y-96991879D01*
X158299438Y-97019488D01*
X158287144Y-97021435D01*
X158111325Y-97078561D01*
X158111322Y-97078562D01*
X157946599Y-97162494D01*
X157797045Y-97271150D01*
X157797040Y-97271154D01*
X157737999Y-97330196D01*
X157676676Y-97363681D01*
X157650318Y-97366515D01*
X154800130Y-97366515D01*
X154645485Y-97397276D01*
X154645473Y-97397279D01*
X154499802Y-97457617D01*
X154499786Y-97457626D01*
X154441407Y-97496633D01*
X154374730Y-97517510D01*
X154307350Y-97499025D01*
X154260660Y-97447045D01*
X154249485Y-97378075D01*
X154250610Y-97371135D01*
X154250675Y-97370479D01*
X154250675Y-97002800D01*
X154250674Y-97002798D01*
X154236919Y-96933646D01*
X154219912Y-96848148D01*
X154164955Y-96715468D01*
X154159572Y-96702472D01*
X154159565Y-96702459D01*
X154071965Y-96571357D01*
X154023482Y-96522874D01*
X153960464Y-96459856D01*
X153402652Y-95902044D01*
X152551317Y-95050708D01*
X152551313Y-95050705D01*
X152420210Y-94963104D01*
X152420197Y-94963097D01*
X152274526Y-94902759D01*
X152274514Y-94902756D01*
X152119870Y-94871995D01*
X152119867Y-94871995D01*
X144279513Y-94871995D01*
X144212474Y-94852310D01*
X144191832Y-94835677D01*
X144087311Y-94731156D01*
X144087307Y-94731153D01*
X144087303Y-94731149D01*
X143937750Y-94622494D01*
X143937749Y-94622493D01*
X143937747Y-94622492D01*
X143884974Y-94595603D01*
X143773027Y-94538562D01*
X143773024Y-94538561D01*
X143597205Y-94481435D01*
X143584912Y-94479488D01*
X143521777Y-94449559D01*
X143484846Y-94390247D01*
X143485844Y-94320385D01*
X143524454Y-94262152D01*
X143584912Y-94234542D01*
X143586683Y-94234261D01*
X143597204Y-94232595D01*
X143773027Y-94175467D01*
X143937747Y-94091538D01*
X144087311Y-93982874D01*
X144218034Y-93852151D01*
X144326698Y-93702587D01*
X144410627Y-93537867D01*
X144467755Y-93362044D01*
X144496675Y-93179455D01*
X144496675Y-92994574D01*
X144467755Y-92811984D01*
X144410628Y-92636165D01*
X144410627Y-92636162D01*
X144381563Y-92579121D01*
X144326698Y-92471443D01*
X144312814Y-92452333D01*
X144218039Y-92321885D01*
X144218035Y-92321880D01*
X144087309Y-92191154D01*
X144087304Y-92191150D01*
X143937750Y-92082494D01*
X143937749Y-92082493D01*
X143937747Y-92082492D01*
X143884974Y-92055603D01*
X143773027Y-91998562D01*
X143773024Y-91998561D01*
X143597205Y-91941435D01*
X143584912Y-91939488D01*
X143521777Y-91909559D01*
X143484846Y-91850247D01*
X143485844Y-91780385D01*
X143524454Y-91722152D01*
X143584912Y-91694542D01*
X143586683Y-91694261D01*
X143597204Y-91692595D01*
X143773027Y-91635467D01*
X143937747Y-91551538D01*
X144087311Y-91442874D01*
X144218034Y-91312151D01*
X144326698Y-91162587D01*
X144410627Y-90997867D01*
X144467755Y-90822044D01*
X144468442Y-90817707D01*
X144496675Y-90639455D01*
X144496675Y-90454574D01*
X144491201Y-90420014D01*
X157641255Y-90420014D01*
X157641256Y-90420015D01*
X158161388Y-90420015D01*
X158142175Y-90491721D01*
X158142175Y-90602309D01*
X158161388Y-90674015D01*
X157641256Y-90674015D01*
X157669836Y-90817697D01*
X157669839Y-90817707D01*
X157739788Y-90986581D01*
X157739795Y-90986594D01*
X157841349Y-91138579D01*
X157841352Y-91138583D01*
X157970606Y-91267837D01*
X157970610Y-91267840D01*
X158122595Y-91369394D01*
X158122608Y-91369401D01*
X158291485Y-91439351D01*
X158291494Y-91439354D01*
X158435175Y-91467933D01*
X158435175Y-90947801D01*
X158506881Y-90967015D01*
X158617469Y-90967015D01*
X158689175Y-90947801D01*
X158689175Y-91467932D01*
X158832855Y-91439354D01*
X158832864Y-91439351D01*
X159001741Y-91369401D01*
X159001754Y-91369394D01*
X159153739Y-91267840D01*
X159153743Y-91267837D01*
X159282997Y-91138583D01*
X159283000Y-91138579D01*
X159384554Y-90986594D01*
X159384561Y-90986581D01*
X159454510Y-90817707D01*
X159454513Y-90817697D01*
X159483094Y-90674015D01*
X158962962Y-90674015D01*
X158982175Y-90602309D01*
X158982175Y-90491721D01*
X158962962Y-90420015D01*
X159483094Y-90420015D01*
X159483094Y-90420014D01*
X159454513Y-90276332D01*
X159454510Y-90276322D01*
X159384561Y-90107448D01*
X159384554Y-90107435D01*
X159283000Y-89955450D01*
X159282997Y-89955446D01*
X159153743Y-89826192D01*
X159153739Y-89826189D01*
X159001754Y-89724635D01*
X159001741Y-89724628D01*
X158832867Y-89654679D01*
X158832857Y-89654676D01*
X158689175Y-89626095D01*
X158689175Y-90146228D01*
X158617469Y-90127015D01*
X158506881Y-90127015D01*
X158435175Y-90146228D01*
X158435175Y-89626096D01*
X158435174Y-89626095D01*
X158291492Y-89654676D01*
X158291482Y-89654679D01*
X158122608Y-89724628D01*
X158122595Y-89724635D01*
X157970610Y-89826189D01*
X157970606Y-89826192D01*
X157841352Y-89955446D01*
X157841349Y-89955450D01*
X157739795Y-90107435D01*
X157739788Y-90107448D01*
X157669839Y-90276322D01*
X157669836Y-90276332D01*
X157641255Y-90420014D01*
X144491201Y-90420014D01*
X144467755Y-90271984D01*
X144410628Y-90096165D01*
X144410627Y-90096162D01*
X144381563Y-90039121D01*
X144326698Y-89931443D01*
X144312814Y-89912333D01*
X144218039Y-89781885D01*
X144218035Y-89781880D01*
X144087309Y-89651154D01*
X144087304Y-89651150D01*
X143937750Y-89542494D01*
X143937749Y-89542493D01*
X143937747Y-89542492D01*
X143884974Y-89515603D01*
X143773027Y-89458562D01*
X143773024Y-89458561D01*
X143597205Y-89401435D01*
X143584912Y-89399488D01*
X143521777Y-89369559D01*
X143484846Y-89310247D01*
X143485844Y-89240385D01*
X143524454Y-89182152D01*
X143584912Y-89154542D01*
X143586683Y-89154261D01*
X143597204Y-89152595D01*
X143773027Y-89095467D01*
X143937747Y-89011538D01*
X144087311Y-88902874D01*
X144218034Y-88772151D01*
X144326698Y-88622587D01*
X144410627Y-88457867D01*
X144467755Y-88282044D01*
X144496675Y-88099455D01*
X144496675Y-87914574D01*
X157387675Y-87914574D01*
X157387675Y-88099455D01*
X157416594Y-88282045D01*
X157473721Y-88457864D01*
X157473722Y-88457867D01*
X157557654Y-88622590D01*
X157666310Y-88772144D01*
X157666314Y-88772149D01*
X157797040Y-88902875D01*
X157797045Y-88902879D01*
X157927493Y-88997654D01*
X157946603Y-89011538D01*
X158054281Y-89066403D01*
X158111322Y-89095467D01*
X158111325Y-89095468D01*
X158287144Y-89152595D01*
X158469735Y-89181515D01*
X158469740Y-89181515D01*
X158654615Y-89181515D01*
X158837205Y-89152595D01*
X159013024Y-89095468D01*
X159013027Y-89095467D01*
X159177747Y-89011538D01*
X159327311Y-88902874D01*
X159458034Y-88772151D01*
X159566698Y-88622587D01*
X159650627Y-88457867D01*
X159707755Y-88282044D01*
X159736675Y-88099455D01*
X159736675Y-87914574D01*
X159707755Y-87731984D01*
X159650628Y-87556165D01*
X159650627Y-87556162D01*
X159621563Y-87499121D01*
X159566698Y-87391443D01*
X159552814Y-87372333D01*
X159458039Y-87241885D01*
X159458035Y-87241880D01*
X159327309Y-87111154D01*
X159327304Y-87111150D01*
X159177750Y-87002494D01*
X159177749Y-87002493D01*
X159177747Y-87002492D01*
X159124974Y-86975603D01*
X159013027Y-86918562D01*
X159013024Y-86918561D01*
X158837205Y-86861434D01*
X158654615Y-86832515D01*
X158654610Y-86832515D01*
X158469740Y-86832515D01*
X158469735Y-86832515D01*
X158287144Y-86861434D01*
X158111325Y-86918561D01*
X158111322Y-86918562D01*
X157946599Y-87002494D01*
X157797045Y-87111150D01*
X157797040Y-87111154D01*
X157666314Y-87241880D01*
X157666310Y-87241885D01*
X157557654Y-87391439D01*
X157473722Y-87556162D01*
X157473721Y-87556165D01*
X157416594Y-87731984D01*
X157387675Y-87914574D01*
X144496675Y-87914574D01*
X144467755Y-87731984D01*
X144410628Y-87556165D01*
X144410627Y-87556162D01*
X144381563Y-87499121D01*
X144326698Y-87391443D01*
X144312814Y-87372333D01*
X144218039Y-87241885D01*
X144218035Y-87241880D01*
X144087309Y-87111154D01*
X144087304Y-87111150D01*
X143937750Y-87002494D01*
X143937749Y-87002493D01*
X143937747Y-87002492D01*
X143884974Y-86975603D01*
X143773027Y-86918562D01*
X143773024Y-86918561D01*
X143597205Y-86861434D01*
X143414615Y-86832515D01*
X143414610Y-86832515D01*
X143229740Y-86832515D01*
X143229735Y-86832515D01*
X143047144Y-86861434D01*
X142871325Y-86918561D01*
X142871322Y-86918562D01*
X142706599Y-87002494D01*
X142557045Y-87111150D01*
X142557040Y-87111154D01*
X142426314Y-87241880D01*
X142426310Y-87241885D01*
X142317654Y-87391439D01*
X142233722Y-87556162D01*
X142233721Y-87556165D01*
X142176594Y-87731984D01*
X142147675Y-87914574D01*
X142147675Y-88099455D01*
X142176594Y-88282045D01*
X142233721Y-88457864D01*
X142233722Y-88457867D01*
X142317654Y-88622590D01*
X142426310Y-88772144D01*
X142426314Y-88772149D01*
X142557040Y-88902875D01*
X142557045Y-88902879D01*
X142687493Y-88997654D01*
X142706603Y-89011538D01*
X142814281Y-89066403D01*
X142871322Y-89095467D01*
X142871325Y-89095468D01*
X142959234Y-89124031D01*
X143047146Y-89152595D01*
X143057325Y-89154207D01*
X143059438Y-89154542D01*
X143122572Y-89184472D01*
X143159503Y-89243784D01*
X143158505Y-89313646D01*
X143119894Y-89371879D01*
X143059438Y-89399488D01*
X143047144Y-89401435D01*
X142871325Y-89458561D01*
X142871322Y-89458562D01*
X142706599Y-89542494D01*
X142557045Y-89651150D01*
X142557040Y-89651154D01*
X142426314Y-89781880D01*
X142426310Y-89781885D01*
X142317654Y-89931439D01*
X142233722Y-90096162D01*
X142233721Y-90096165D01*
X142176594Y-90271984D01*
X142147675Y-90454574D01*
X142147675Y-90639455D01*
X142176594Y-90822045D01*
X142233721Y-90997864D01*
X142233722Y-90997867D01*
X142290763Y-91109814D01*
X142305421Y-91138583D01*
X142317654Y-91162590D01*
X142426310Y-91312144D01*
X142426314Y-91312149D01*
X142557040Y-91442875D01*
X142557045Y-91442879D01*
X142687493Y-91537654D01*
X142706603Y-91551538D01*
X142814281Y-91606403D01*
X142871322Y-91635467D01*
X142871325Y-91635468D01*
X142959234Y-91664031D01*
X143047146Y-91692595D01*
X143057325Y-91694207D01*
X143059438Y-91694542D01*
X143122572Y-91724472D01*
X143159503Y-91783784D01*
X143158505Y-91853646D01*
X143119894Y-91911879D01*
X143059438Y-91939488D01*
X143047144Y-91941435D01*
X142871325Y-91998561D01*
X142871322Y-91998562D01*
X142706599Y-92082494D01*
X142557045Y-92191150D01*
X142557040Y-92191154D01*
X142426314Y-92321880D01*
X142426310Y-92321885D01*
X142317654Y-92471439D01*
X142233722Y-92636162D01*
X142233721Y-92636165D01*
X142176594Y-92811984D01*
X142147675Y-92994574D01*
X142147675Y-93179455D01*
X142176594Y-93362045D01*
X142233721Y-93537864D01*
X142233722Y-93537867D01*
X142317654Y-93702590D01*
X142426310Y-93852144D01*
X142426314Y-93852149D01*
X142557040Y-93982875D01*
X142557045Y-93982879D01*
X142687493Y-94077654D01*
X142706603Y-94091538D01*
X142814281Y-94146403D01*
X142871322Y-94175467D01*
X142871325Y-94175468D01*
X142959234Y-94204031D01*
X143047146Y-94232595D01*
X143057325Y-94234207D01*
X143059438Y-94234542D01*
X143122572Y-94264472D01*
X143159503Y-94323784D01*
X143158505Y-94393646D01*
X143119894Y-94451879D01*
X143059438Y-94479488D01*
X143047144Y-94481435D01*
X142871325Y-94538561D01*
X142871322Y-94538562D01*
X142706599Y-94622494D01*
X142557045Y-94731150D01*
X142557040Y-94731154D01*
X142426314Y-94861880D01*
X142426310Y-94861885D01*
X142317654Y-95011439D01*
X142233722Y-95176162D01*
X142233721Y-95176165D01*
X142176594Y-95351984D01*
X142147675Y-95534574D01*
X142147675Y-95719455D01*
X142176594Y-95902045D01*
X142233721Y-96077864D01*
X142233722Y-96077867D01*
X142317654Y-96242590D01*
X142426310Y-96392144D01*
X142426314Y-96392149D01*
X142557040Y-96522875D01*
X142557045Y-96522879D01*
X142623769Y-96571356D01*
X142706603Y-96631538D01*
X142814281Y-96686403D01*
X142871322Y-96715467D01*
X142871325Y-96715468D01*
X142959234Y-96744031D01*
X143047146Y-96772595D01*
X143057325Y-96774207D01*
X143059438Y-96774542D01*
X143122572Y-96804472D01*
X143159503Y-96863784D01*
X143158505Y-96933646D01*
X143119894Y-96991879D01*
X143059438Y-97019488D01*
X143047144Y-97021435D01*
X142871325Y-97078561D01*
X142871322Y-97078562D01*
X142706599Y-97162494D01*
X142557045Y-97271150D01*
X142557040Y-97271154D01*
X142426314Y-97401880D01*
X142426310Y-97401885D01*
X142317654Y-97551439D01*
X142233722Y-97716162D01*
X142233721Y-97716165D01*
X142176594Y-97891984D01*
X142147675Y-98074574D01*
X142147675Y-98259455D01*
X142176594Y-98442045D01*
X142233721Y-98617864D01*
X142233722Y-98617867D01*
X142317654Y-98782590D01*
X142426310Y-98932144D01*
X142426314Y-98932149D01*
X142557040Y-99062875D01*
X142557045Y-99062879D01*
X142687493Y-99157654D01*
X142706603Y-99171538D01*
X142814281Y-99226403D01*
X142871322Y-99255467D01*
X142871325Y-99255468D01*
X142959234Y-99284031D01*
X143047146Y-99312595D01*
X143057325Y-99314207D01*
X143059438Y-99314542D01*
X143122572Y-99344472D01*
X143159503Y-99403784D01*
X143158505Y-99473646D01*
X143119894Y-99531879D01*
X143059438Y-99559488D01*
X143047144Y-99561435D01*
X142871325Y-99618561D01*
X142871322Y-99618562D01*
X142706599Y-99702494D01*
X142557045Y-99811150D01*
X142557040Y-99811154D01*
X142426314Y-99941880D01*
X142426310Y-99941885D01*
X142317654Y-100091439D01*
X142233722Y-100256162D01*
X142233721Y-100256165D01*
X142176594Y-100431984D01*
X142147675Y-100614574D01*
X142147675Y-100799455D01*
X142176594Y-100982045D01*
X142233721Y-101157864D01*
X142233722Y-101157867D01*
X142317654Y-101322590D01*
X142426310Y-101472144D01*
X142426314Y-101472149D01*
X142557040Y-101602875D01*
X142557045Y-101602879D01*
X142687493Y-101697654D01*
X142706603Y-101711538D01*
X142814281Y-101766403D01*
X142871322Y-101795467D01*
X142871325Y-101795468D01*
X142959234Y-101824031D01*
X143047146Y-101852595D01*
X143057325Y-101854207D01*
X143059438Y-101854542D01*
X143122572Y-101884472D01*
X143159503Y-101943784D01*
X143158505Y-102013646D01*
X143119894Y-102071879D01*
X143059438Y-102099488D01*
X143047144Y-102101435D01*
X142871325Y-102158561D01*
X142871322Y-102158562D01*
X142706599Y-102242494D01*
X142557045Y-102351150D01*
X142557040Y-102351154D01*
X142426314Y-102481880D01*
X142426310Y-102481885D01*
X142317654Y-102631439D01*
X142233722Y-102796162D01*
X142233721Y-102796165D01*
X142176594Y-102971984D01*
X142147675Y-103154574D01*
X142147675Y-103339455D01*
X142176594Y-103522045D01*
X142233721Y-103697864D01*
X142233722Y-103697867D01*
X142317654Y-103862590D01*
X142426310Y-104012144D01*
X142426314Y-104012149D01*
X142557040Y-104142875D01*
X142557045Y-104142879D01*
X142687493Y-104237654D01*
X142706603Y-104251538D01*
X142814281Y-104306403D01*
X142871322Y-104335467D01*
X142871325Y-104335468D01*
X143047144Y-104392595D01*
X143229735Y-104421515D01*
X143229740Y-104421515D01*
X143414615Y-104421515D01*
X143597205Y-104392595D01*
X143773024Y-104335468D01*
X143773027Y-104335467D01*
X143937747Y-104251538D01*
X144087311Y-104142874D01*
X144218034Y-104012151D01*
X144326698Y-103862587D01*
X144410627Y-103697867D01*
X144467755Y-103522044D01*
X144496675Y-103339455D01*
X144496675Y-103154574D01*
X144467755Y-102971984D01*
X144410628Y-102796165D01*
X144410627Y-102796162D01*
X144381563Y-102739121D01*
X144326698Y-102631443D01*
X144312814Y-102612333D01*
X144218039Y-102481885D01*
X144218035Y-102481880D01*
X144087309Y-102351154D01*
X144087304Y-102351150D01*
X143937750Y-102242494D01*
X143937749Y-102242493D01*
X143937747Y-102242492D01*
X143884974Y-102215603D01*
X143773027Y-102158562D01*
X143773024Y-102158561D01*
X143597205Y-102101435D01*
X143584912Y-102099488D01*
X143521777Y-102069559D01*
X143484846Y-102010247D01*
X143485844Y-101940385D01*
X143524454Y-101882152D01*
X143584912Y-101854542D01*
X143586683Y-101854261D01*
X143597204Y-101852595D01*
X143773027Y-101795467D01*
X143937747Y-101711538D01*
X144087311Y-101602874D01*
X144218034Y-101472151D01*
X144326698Y-101322587D01*
X144410627Y-101157867D01*
X144410628Y-101157864D01*
X144467755Y-100982045D01*
X144496675Y-100799455D01*
X144496675Y-100614574D01*
X144467755Y-100431984D01*
X144410628Y-100256165D01*
X144410627Y-100256162D01*
X144381563Y-100199121D01*
X144326698Y-100091443D01*
X144312814Y-100072333D01*
X144218039Y-99941885D01*
X144218035Y-99941880D01*
X144087309Y-99811154D01*
X144087304Y-99811150D01*
X143937750Y-99702494D01*
X143937749Y-99702493D01*
X143937747Y-99702492D01*
X143884974Y-99675603D01*
X143773027Y-99618562D01*
X143773024Y-99618561D01*
X143597205Y-99561435D01*
X143584912Y-99559488D01*
X143521777Y-99529559D01*
X143484846Y-99470247D01*
X143485844Y-99400385D01*
X143524454Y-99342152D01*
X143584912Y-99314542D01*
X143586683Y-99314261D01*
X143597204Y-99312595D01*
X143773027Y-99255467D01*
X143937747Y-99171538D01*
X144087311Y-99062874D01*
X144100871Y-99049314D01*
X144162194Y-99015829D01*
X144188552Y-99012995D01*
X148395385Y-99012995D01*
X148462424Y-99032680D01*
X148483066Y-99049314D01*
X150089882Y-100656131D01*
X150089886Y-100656134D01*
X150220989Y-100743735D01*
X150221002Y-100743742D01*
X150355495Y-100799450D01*
X150366678Y-100804082D01*
X150521328Y-100834844D01*
X150521331Y-100834845D01*
X150521333Y-100834845D01*
X150679018Y-100834845D01*
X150714449Y-100827796D01*
X150777476Y-100815260D01*
X150847066Y-100821487D01*
X150902244Y-100864349D01*
X150925489Y-100930239D01*
X150909422Y-100998236D01*
X150889348Y-101024558D01*
X146808036Y-105105866D01*
X146746713Y-105139351D01*
X146720355Y-105142185D01*
X144076827Y-105142185D01*
X144046072Y-105148301D01*
X144046073Y-105148302D01*
X143922185Y-105172945D01*
X143922182Y-105172946D01*
X143922180Y-105172946D01*
X143922179Y-105172947D01*
X143836840Y-105208295D01*
X143836838Y-105208296D01*
X143836837Y-105208295D01*
X143776498Y-105233289D01*
X143776492Y-105233292D01*
X143688891Y-105291826D01*
X143688891Y-105291827D01*
X143645384Y-105320896D01*
X143645383Y-105320897D01*
X141228387Y-107737883D01*
X141226424Y-107740606D01*
X141225996Y-107741369D01*
X141225031Y-107742906D01*
X141140781Y-107868996D01*
X141134772Y-107883503D01*
X141130787Y-107893121D01*
X141130785Y-107893126D01*
X141080438Y-108014675D01*
X141080436Y-108014683D01*
X141049675Y-108169326D01*
X132900675Y-108169326D01*
X132900675Y-86763351D01*
X132920360Y-86696312D01*
X132936901Y-86675762D01*
X134071424Y-85538947D01*
X134132714Y-85505401D01*
X134159203Y-85502541D01*
X162843336Y-85505517D01*
G37*
%TD.AperFunction*%
%TD*%
M02*
